<svg width="23" height="24" viewBox="0 0 23 24" fill="none" xmlns="http://www.w3.org/2000/svg">
<path d="M17.7845 24.0001C17.5606 23.9995 17.3375 23.9733 17.1188 23.922C12.9562 23.0031 9.12128 20.8486 6.05549 17.7065C3.05512 14.5575 0.974207 10.5482 0.0645148 6.16352C-0.0427493 5.61707 -0.0164224 5.05035 0.140963 4.51789C0.298348 3.98544 0.581494 3.50516 0.963161 3.12328L3.62582 0.388473C3.76181 0.251226 3.92341 0.146126 4.10005 0.0800309C4.27668 0.0139359 4.4644 -0.0116682 4.65094 0.00488972C4.84436 0.0264222 5.031 0.0929101 5.19776 0.199678C5.36451 0.306445 5.50733 0.4509 5.61615 0.622884L8.94447 5.87229C9.06928 6.07597 9.12953 6.31703 9.11635 6.55999C9.10317 6.80295 9.01725 7.03498 8.87125 7.22193L7.20043 9.35294C7.86586 10.9245 8.80824 12.3449 9.97625 13.5368C11.1367 14.772 12.5083 15.7582 14.0168 16.4421L16.087 14.6876C16.2609 14.5409 16.4725 14.4543 16.6937 14.439C16.9148 14.4238 17.1351 14.4808 17.3252 14.6023L22.3509 18.0688C22.5234 18.1787 22.6703 18.3288 22.7807 18.5079C22.8911 18.687 22.9621 18.8904 22.9883 19.1029C23.0146 19.3154 22.9954 19.5315 22.9323 19.735C22.8692 19.9385 22.7637 20.1241 22.6239 20.278L20.0278 23.0199C19.7329 23.333 19.3829 23.5808 18.9979 23.749C18.6129 23.9173 18.2005 24.0026 17.7845 24.0001ZM4.54443 1.41136L1.88178 4.14616C1.66707 4.35966 1.50813 4.62911 1.4206 4.92802C1.33306 5.22693 1.31994 5.54501 1.38253 5.85098C2.2284 9.96535 4.1728 13.7303 6.98076 16.6907C9.86588 19.6468 13.4747 21.6733 17.3917 22.5368C17.6882 22.603 17.9955 22.5896 18.2859 22.4978C18.5763 22.4061 18.8409 22.2389 19.0559 22.0112L21.652 19.2693L16.7993 15.9236L14.576 17.8131C14.4909 17.885 14.3906 17.9335 14.2838 17.9546C14.1771 17.9756 14.0671 17.9685 13.9636 17.9338C12.1175 17.208 10.4445 16.0558 9.06429 14.5597C7.63667 13.1371 6.52852 11.3888 5.82251 9.44529C5.79264 9.32763 5.79164 9.20375 5.81962 9.08557C5.8476 8.96738 5.90361 8.85887 5.98226 8.77047L7.77956 6.47607L4.54443 1.41136Z" fill="#404040"/>
</svg>
