<svg width="26" height="26" viewBox="0 0 26 26" fill="none" xmlns="http://www.w3.org/2000/svg">
<circle cx="13" cy="13" r="12.5" stroke="#6358E1"/>
<path d="M20.5 9.65137V16.7501C20.5 17.324 20.2808 17.8763 19.887 18.2938C19.4933 18.7114 18.9549 18.9627 18.382 18.9964L18.25 19.0001H7.75C7.17609 19.0001 6.62386 18.7809 6.2063 18.3872C5.78874 17.9934 5.53742 17.455 5.50375 16.8821L5.5 16.7501V9.65137L12.5837 14.3741L12.6707 14.4236C12.7733 14.4737 12.8859 14.4998 13 14.4998C13.1141 14.4998 13.2267 14.4737 13.3293 14.4236L13.4163 14.3741L20.5 9.65137Z" fill="#004DA2"/>
<path d="M18.25 7C19.06 7 19.7702 7.4275 20.1662 8.07025L13 12.8477L5.83374 8.07025C6.02179 7.76483 6.28015 7.5088 6.58727 7.32354C6.89439 7.13827 7.24136 7.02914 7.59924 7.00525L7.74999 7H18.25Z" fill="#004DA2"/>
</svg>
