<svg width="26" height="26" viewBox="0 0 26 26" fill="none" xmlns="http://www.w3.org/2000/svg">
<circle cx="13" cy="13" r="12.5" stroke="#6358E1"/>
<path fill-rule="evenodd" clip-rule="evenodd" d="M17.8622 18.8426V18.8411L17.8757 18.8089L20.125 7.46888V7.43288C20.125 7.15013 20.02 6.90338 19.7935 6.75563C19.5947 6.62588 19.366 6.61688 19.2055 6.62888C19.0561 6.6424 18.9087 6.67258 18.766 6.71888C18.7051 6.7385 18.6451 6.76052 18.586 6.78488L18.5762 6.78863L6.03623 11.7079L6.03248 11.7094C5.99435 11.7224 5.95704 11.7377 5.92073 11.7551C5.83154 11.7952 5.74598 11.8429 5.66498 11.8976C5.50373 12.0086 5.19698 12.2696 5.24873 12.6836C5.29148 13.0271 5.52773 13.2446 5.68748 13.3579C5.78177 13.424 5.88315 13.4793 5.98973 13.5229L6.01373 13.5334L6.02123 13.5356L6.02648 13.5379L8.22098 14.2766C8.21348 14.4139 8.22698 14.5541 8.26373 14.6929L9.36248 18.8621C9.4225 19.0894 9.55221 19.2922 9.73337 19.4419C9.91454 19.5917 10.1381 19.681 10.3726 19.6972C10.6071 19.7134 10.8407 19.6557 11.0408 19.5323C11.2409 19.4089 11.3972 19.226 11.488 19.0091L13.204 17.1746L16.1507 19.4336L16.1927 19.4516C16.4605 19.5686 16.7102 19.6054 16.939 19.5746C17.1677 19.5431 17.3492 19.4471 17.4857 19.3384C17.6436 19.2104 17.7694 19.0473 17.8532 18.8621L17.8592 18.8494L17.8615 18.8449L17.8622 18.8426ZM9.35123 14.4064C9.33906 14.3601 9.34195 14.3112 9.35949 14.2667C9.37702 14.2222 9.40828 14.1844 9.44873 14.1589L16.8895 9.43388C16.8895 9.43388 17.3275 9.16763 17.3117 9.43388C17.3117 9.43388 17.3897 9.48038 17.155 9.69863C16.933 9.90638 11.8517 14.8121 11.3372 15.3086C11.3086 15.3364 11.2886 15.3718 11.2795 15.4106L10.45 18.5756L9.35123 14.4056V14.4064Z" fill="#1D8FCC"/>
</svg>
