<svg width="26" height="26" viewBox="0 0 26 26" fill="none" xmlns="http://www.w3.org/2000/svg">
<circle cx="13" cy="13" r="12.5" stroke="#6358E1"/>
<path fill-rule="evenodd" clip-rule="evenodd" d="M16.5071 5.97079C14.1475 5.44333 11.7005 5.44333 9.34085 5.97079L9.0866 6.02704C8.42286 6.17544 7.81325 6.50493 7.3255 6.97891C6.83774 7.4529 6.49093 8.05282 6.3236 8.71204C5.72547 11.0689 5.72547 13.5379 6.3236 15.8948C6.48318 16.5235 6.80615 17.0988 7.25977 17.5624C7.71339 18.0261 8.28153 18.3615 8.90659 18.5348L9.25535 20.6168C9.26648 20.6829 9.29513 20.7448 9.33832 20.7961C9.38151 20.8474 9.43766 20.8861 9.50091 20.9083C9.56417 20.9306 9.63223 20.9354 9.69799 20.9224C9.76376 20.9093 9.82483 20.8789 9.87485 20.8343L11.9231 19.002C13.4607 19.0959 15.0038 18.9729 16.5071 18.6368L16.7621 18.5805C17.4258 18.4321 18.0354 18.1027 18.5232 17.6287C19.0109 17.1547 19.3578 16.5548 19.5251 15.8955C20.1232 13.5386 20.1232 11.0697 19.5251 8.71279C19.3577 8.05348 19.0108 7.45349 18.5229 6.97949C18.035 6.5055 17.4252 6.17606 16.7613 6.02779L16.5071 5.97079ZM9.97385 8.65129C9.83446 8.631 9.69232 8.65906 9.5711 8.73079H9.5606C9.27935 8.89579 9.02585 9.10354 8.80985 9.34804C8.62985 9.55579 8.53235 9.76579 8.50685 9.96829C8.49185 10.0883 8.50235 10.2098 8.5376 10.3245L8.5511 10.332C8.7536 10.9268 9.0176 11.499 9.3401 12.0375C9.75593 12.7939 10.2677 13.4934 10.8626 14.1188L10.8806 14.1443L10.9091 14.1653L10.9263 14.1855L10.9473 14.2035C11.5749 14.8003 12.2761 15.3144 13.0338 15.7335C13.9001 16.2053 14.4258 16.428 14.7416 16.521V16.5255C14.8338 16.554 14.9178 16.5668 15.0026 16.5668C15.2715 16.5469 15.526 16.4376 15.7256 16.2563C15.9693 16.0403 16.1756 15.786 16.3361 15.5033V15.498C16.4868 15.213 16.4358 14.9445 16.2183 14.7623C15.7815 14.3806 15.3091 14.0415 14.8076 13.7498C14.4716 13.5675 14.1303 13.6778 13.9923 13.8623L13.6976 14.2343C13.5461 14.4188 13.2716 14.3933 13.2716 14.3933L13.2641 14.3978C11.2158 13.875 10.6691 11.8013 10.6691 11.8013C10.6691 11.8013 10.6436 11.5193 10.8333 11.3753L11.2023 11.0783C11.3793 10.9343 11.5023 10.5938 11.3126 10.2578C11.0228 9.75586 10.6844 9.2836 10.3023 8.84779C10.219 8.74522 10.1021 8.67537 9.97234 8.65054L9.97385 8.65129ZM13.4343 7.74979C13.3349 7.74979 13.2395 7.7893 13.1692 7.85962C13.0989 7.92995 13.0593 8.02533 13.0593 8.12479C13.0593 8.22425 13.0989 8.31963 13.1692 8.38995C13.2395 8.46028 13.3349 8.49979 13.4343 8.49979C14.3831 8.49979 15.1706 8.80954 15.7938 9.40354C16.1141 9.72829 16.3638 10.113 16.5273 10.5345C16.6916 10.9568 16.7666 11.4075 16.7471 11.859C16.745 11.9083 16.7527 11.9575 16.7696 12.0037C16.7865 12.05 16.8124 12.0925 16.8458 12.1288C16.9132 12.2021 17.0069 12.2456 17.1063 12.2498C17.2058 12.254 17.3028 12.2185 17.3761 12.1511C17.4494 12.0837 17.4929 11.99 17.4971 11.8905C17.5204 11.3352 17.4282 10.781 17.2263 10.263C17.0236 9.74264 16.7163 9.26938 16.3233 8.87254L16.3158 8.86504C15.5426 8.12629 14.5638 7.74979 13.4343 7.74979ZM13.4088 8.98279C13.3094 8.98279 13.214 9.0223 13.1437 9.09262C13.0734 9.16295 13.0338 9.25833 13.0338 9.35779C13.0338 9.45725 13.0734 9.55263 13.1437 9.62295C13.214 9.69328 13.3094 9.73279 13.4088 9.73279H13.4216C14.1056 9.78154 14.6036 10.0095 14.9523 10.3838C15.3101 10.7693 15.4953 11.2485 15.4811 11.841C15.4788 11.9405 15.5161 12.0368 15.5848 12.1087C15.6535 12.1807 15.748 12.2224 15.8475 12.2247C15.9469 12.227 16.0432 12.1896 16.1152 12.1209C16.1871 12.0522 16.2288 11.9577 16.2311 11.8583C16.2491 11.0805 15.9986 10.4093 15.5021 9.87379V9.87229C14.9943 9.32779 14.2976 9.03979 13.4591 8.98354L13.4463 8.98204L13.4088 8.98279ZM13.3946 10.239C13.3444 10.2346 13.2938 10.2403 13.2459 10.2559C13.198 10.2714 13.1537 10.2965 13.1157 10.3295C13.0776 10.3626 13.0467 10.4029 13.0246 10.4482C13.0025 10.4935 12.9898 10.5428 12.9871 10.5931C12.9845 10.6434 12.9921 10.6937 13.0093 10.741C13.0266 10.7884 13.0532 10.8317 13.0876 10.8686C13.122 10.9054 13.1634 10.9349 13.2095 10.9553C13.2555 10.9758 13.3052 10.9867 13.3556 10.9875C13.6691 11.004 13.8693 11.0985 13.9953 11.2253C14.1221 11.3528 14.2166 11.5575 14.2338 11.8778C14.2348 11.9281 14.2458 11.9777 14.2664 12.0237C14.2869 12.0697 14.3164 12.111 14.3533 12.1453C14.3901 12.1796 14.4335 12.2061 14.4808 12.2233C14.5281 12.2405 14.5784 12.248 14.6287 12.2453C14.6789 12.2426 14.7281 12.2299 14.7734 12.2078C14.8186 12.1857 14.8589 12.1547 14.8919 12.1167C14.9249 12.0787 14.9499 12.0344 14.9655 11.9866C14.981 11.9387 14.9867 11.8882 14.9823 11.838C14.9583 11.388 14.8173 10.9905 14.5286 10.698C14.2383 10.4055 13.8431 10.263 13.3946 10.239Z" fill="#764D99"/>
</svg>
