<svg width="26" height="26" viewBox="0 0 26 26" fill="none" xmlns="http://www.w3.org/2000/svg">
<circle cx="13" cy="13" r="12.5" stroke="#6358E1"/>
<path d="M13.0007 5.5C17.143 5.5 20.5007 8.85775 20.5007 13C20.5007 17.1423 17.143 20.5 13.0007 20.5C11.6753 20.5021 10.3732 20.1514 9.22824 19.4838L5.50374 20.5L6.51774 16.774C5.84956 15.6287 5.49853 14.326 5.50074 13C5.50074 8.85775 8.85849 5.5 13.0007 5.5ZM10.4447 9.475L10.2947 9.481C10.1976 9.48691 10.1027 9.51243 10.0157 9.556C9.93438 9.60207 9.86012 9.65967 9.79524 9.727C9.70524 9.81175 9.65424 9.88525 9.59949 9.9565C9.32208 10.3172 9.17272 10.76 9.17499 11.215C9.17649 11.5825 9.27249 11.9402 9.42249 12.2747C9.72924 12.9513 10.234 13.6675 10.9 14.3312C11.0605 14.491 11.218 14.6515 11.3875 14.8007C12.215 15.5293 13.2012 16.0548 14.2675 16.3353L14.6935 16.4005C14.8322 16.408 14.971 16.3975 15.1105 16.3907C15.3289 16.3795 15.5422 16.3203 15.7352 16.2175C15.8335 16.1669 15.9293 16.1119 16.0225 16.0525C16.0225 16.0525 16.0547 16.0315 16.1162 15.985C16.2175 15.91 16.2797 15.8568 16.3637 15.769C16.426 15.7045 16.48 15.6287 16.5212 15.5425C16.5797 15.4202 16.6382 15.187 16.6622 14.9928C16.6802 14.8442 16.675 14.7633 16.6727 14.713C16.6697 14.6328 16.603 14.5495 16.5302 14.5142L16.0937 14.3185C16.0937 14.3185 15.4412 14.0343 15.0422 13.8527C15.0005 13.8345 14.9558 13.8241 14.9102 13.822C14.8589 13.8167 14.8071 13.8225 14.7582 13.8389C14.7093 13.8554 14.6645 13.8821 14.6267 13.9172C14.623 13.9157 14.5727 13.9585 14.0305 14.6155C13.9994 14.6573 13.9565 14.6889 13.9073 14.7063C13.8582 14.7237 13.805 14.726 13.7545 14.713C13.7056 14.6999 13.6578 14.6834 13.6112 14.6635C13.5182 14.6245 13.486 14.6095 13.4222 14.5825C12.9918 14.3947 12.5933 14.1409 12.241 13.8302C12.1465 13.7478 12.0587 13.6578 11.9687 13.5707C11.6737 13.2882 11.4165 12.9685 11.2037 12.6198L11.1595 12.5485C11.1277 12.5006 11.102 12.449 11.083 12.3947C11.0545 12.2845 11.1287 12.196 11.1287 12.196C11.1287 12.196 11.311 11.9965 11.3957 11.8885C11.4782 11.7835 11.548 11.6815 11.593 11.6088C11.6815 11.4663 11.7092 11.32 11.6627 11.2067C11.4527 10.6938 11.2352 10.183 11.0117 9.676C10.9675 9.5755 10.8362 9.5035 10.717 9.48925C10.6765 9.48475 10.636 9.48025 10.5955 9.47725C10.4948 9.47225 10.3938 9.47325 10.2932 9.48025L10.444 9.47425L10.4447 9.475Z" fill="#29B741"/>
</svg>
